<mxfile host="app.diagrams.net" modified="2023-10-17T12:42:39.277Z" agent="Mozilla/5.0 (X11; Ubuntu; Linux x86_64; rv:109.0) Gecko/20100101 Firefox/118.0" etag="4JE8SY3Nlywl8swpEVks" version="22.0.4" type="device">
  <diagram name="Página-1" id="5-w2n8aKjEj4W2KTCGba">
    <mxGraphModel dx="1364" dy="795" grid="1" gridSize="10" guides="1" tooltips="1" connect="1" arrows="1" fold="1" page="1" pageScale="1" pageWidth="827" pageHeight="1169" math="0" shadow="0">
      <root>
        <mxCell id="0" />
        <mxCell id="1" parent="0" />
        <mxCell id="Qi0XVNb7pihfamDj6da_-2" value="&lt;div&gt;Step linea 15 de archivo 15.c&lt;/div&gt;Step en linea 118 de archivo 15.s" style="text;strokeColor=none;fillColor=none;html=1;fontSize=24;fontStyle=1;verticalAlign=middle;align=center;" parent="1" vertex="1">
          <mxGeometry x="84" y="20" width="660" height="70" as="geometry" />
        </mxCell>
        <mxCell id="Qi0XVNb7pihfamDj6da_-32" value="" style="endArrow=classic;html=1;rounded=0;" parent="1" edge="1">
          <mxGeometry width="50" height="50" relative="1" as="geometry">
            <mxPoint x="529" y="294.5" as="sourcePoint" />
            <mxPoint x="600" y="294.5" as="targetPoint" />
            <Array as="points" />
          </mxGeometry>
        </mxCell>
        <UserObject label="&lt;font style=&quot;font-size: 14px;&quot;&gt;direccion: rbp + 24 = 0x7fffffffdef8&amp;nbsp; descripción: (argumento 8 de f)&lt;/font&gt;" placeholders="1" name="Variable" id="Qi0XVNb7pihfamDj6da_-33">
          <mxCell style="text;html=1;strokeColor=none;fillColor=none;align=center;verticalAlign=middle;whiteSpace=wrap;overflow=hidden;" parent="1" vertex="1">
            <mxGeometry x="600" y="270" width="220" height="50" as="geometry" />
          </mxCell>
        </UserObject>
        <mxCell id="Qi0XVNb7pihfamDj6da_-34" value="" style="endArrow=classic;html=1;rounded=0;" parent="1" edge="1">
          <mxGeometry width="50" height="50" relative="1" as="geometry">
            <mxPoint x="529" y="364.5" as="sourcePoint" />
            <mxPoint x="600" y="364.5" as="targetPoint" />
            <Array as="points" />
          </mxGeometry>
        </mxCell>
        <UserObject label="&lt;font style=&quot;font-size: 14px;&quot;&gt;dirección: rbp = 0x7fffffffdee0&lt;/font&gt;" placeholders="1" name="Variable" id="Qi0XVNb7pihfamDj6da_-36">
          <mxCell style="text;html=1;strokeColor=none;fillColor=none;align=center;verticalAlign=middle;whiteSpace=wrap;overflow=hidden;" parent="1" vertex="1">
            <mxGeometry x="600" y="500" width="190" height="20" as="geometry" />
          </mxCell>
        </UserObject>
        <mxCell id="Qi0XVNb7pihfamDj6da_-37" value="" style="endArrow=classic;html=1;rounded=0;" parent="1" edge="1">
          <mxGeometry width="50" height="50" relative="1" as="geometry">
            <mxPoint x="529" y="510" as="sourcePoint" />
            <mxPoint x="600" y="510" as="targetPoint" />
            <Array as="points" />
          </mxGeometry>
        </mxCell>
        <UserObject label="&lt;font style=&quot;font-size: 14px;&quot;&gt;direccion: rbp + 16 = 0x7fffffffdef0&amp;nbsp; descripción: (argumento 7 de f)&lt;/font&gt;" placeholders="1" name="Variable" id="_Xig-yr3xcJaS5qAGyrN-3">
          <mxCell style="text;html=1;strokeColor=none;fillColor=none;align=center;verticalAlign=middle;whiteSpace=wrap;overflow=hidden;" parent="1" vertex="1">
            <mxGeometry x="600" y="340" width="220" height="50" as="geometry" />
          </mxCell>
        </UserObject>
        <mxCell id="_Xig-yr3xcJaS5qAGyrN-4" value="" style="endArrow=classic;html=1;rounded=0;" parent="1" edge="1">
          <mxGeometry width="50" height="50" relative="1" as="geometry">
            <mxPoint x="529" y="430" as="sourcePoint" />
            <mxPoint x="600" y="430" as="targetPoint" />
            <Array as="points" />
          </mxGeometry>
        </mxCell>
        <UserObject label="&lt;font style=&quot;font-size: 14px;&quot;&gt;direccion: rbp + 8 = 0x7fffffffdee8&amp;nbsp; &lt;br&gt;&lt;/font&gt;" placeholders="1" name="Variable" id="_Xig-yr3xcJaS5qAGyrN-5">
          <mxCell style="text;html=1;strokeColor=none;fillColor=none;align=center;verticalAlign=middle;whiteSpace=wrap;overflow=hidden;" parent="1" vertex="1">
            <mxGeometry x="600" y="405" width="220" height="50" as="geometry" />
          </mxCell>
        </UserObject>
        <mxCell id="Qi0XVNb7pihfamDj6da_-3" value="" style="shape=table;startSize=0;container=1;collapsible=0;childLayout=tableLayout;fontSize=16;fillColor=#ffe6cc;strokeColor=#d79b00;" parent="1" vertex="1">
          <mxGeometry x="350" y="130" width="230" height="480" as="geometry" />
        </mxCell>
        <mxCell id="Qi0XVNb7pihfamDj6da_-30" style="shape=tableRow;horizontal=0;startSize=0;swimlaneHead=0;swimlaneBody=0;strokeColor=inherit;top=0;left=0;bottom=0;right=0;collapsible=0;dropTarget=0;fillColor=none;points=[[0,0.5],[1,0.5]];portConstraint=eastwest;fontSize=16;" parent="Qi0XVNb7pihfamDj6da_-3" vertex="1">
          <mxGeometry width="230" height="40" as="geometry" />
        </mxCell>
        <mxCell id="Qi0XVNb7pihfamDj6da_-31" value="..." style="shape=partialRectangle;html=1;whiteSpace=wrap;connectable=0;strokeColor=inherit;overflow=hidden;fillColor=none;top=0;left=0;bottom=0;right=0;pointerEvents=1;fontSize=16;" parent="Qi0XVNb7pihfamDj6da_-30" vertex="1">
          <mxGeometry width="230" height="40" as="geometry">
            <mxRectangle width="230" height="40" as="alternateBounds" />
          </mxGeometry>
        </mxCell>
        <mxCell id="Qi0XVNb7pihfamDj6da_-4" value="" style="shape=tableRow;horizontal=0;startSize=0;swimlaneHead=0;swimlaneBody=0;strokeColor=inherit;top=0;left=0;bottom=0;right=0;collapsible=0;dropTarget=0;fillColor=none;points=[[0,0.5],[1,0.5]];portConstraint=eastwest;fontSize=16;" parent="Qi0XVNb7pihfamDj6da_-3" vertex="1">
          <mxGeometry y="40" width="230" height="40" as="geometry" />
        </mxCell>
        <mxCell id="Qi0XVNb7pihfamDj6da_-5" value="Comienzo de pila" style="shape=partialRectangle;html=1;whiteSpace=wrap;connectable=0;strokeColor=inherit;overflow=hidden;fillColor=none;top=0;left=0;bottom=0;right=0;pointerEvents=1;fontSize=16;" parent="Qi0XVNb7pihfamDj6da_-4" vertex="1">
          <mxGeometry width="230" height="40" as="geometry">
            <mxRectangle width="230" height="40" as="alternateBounds" />
          </mxGeometry>
        </mxCell>
        <mxCell id="Qi0XVNb7pihfamDj6da_-8" value="" style="shape=tableRow;horizontal=0;startSize=0;swimlaneHead=0;swimlaneBody=0;strokeColor=inherit;top=0;left=0;bottom=0;right=0;collapsible=0;dropTarget=0;fillColor=none;points=[[0,0.5],[1,0.5]];portConstraint=eastwest;fontSize=16;" parent="Qi0XVNb7pihfamDj6da_-3" vertex="1">
          <mxGeometry y="80" width="230" height="50" as="geometry" />
        </mxCell>
        <mxCell id="Qi0XVNb7pihfamDj6da_-9" value="Marcos de activación anteriores" style="shape=partialRectangle;html=1;whiteSpace=wrap;connectable=0;strokeColor=inherit;overflow=hidden;fillColor=none;top=0;left=0;bottom=0;right=0;pointerEvents=1;fontSize=16;" parent="Qi0XVNb7pihfamDj6da_-8" vertex="1">
          <mxGeometry width="230" height="50" as="geometry">
            <mxRectangle width="230" height="50" as="alternateBounds" />
          </mxGeometry>
        </mxCell>
        <mxCell id="Qi0XVNb7pihfamDj6da_-16" style="shape=tableRow;horizontal=0;startSize=0;swimlaneHead=0;swimlaneBody=0;strokeColor=inherit;top=0;left=0;bottom=0;right=0;collapsible=0;dropTarget=0;fillColor=none;points=[[0,0.5],[1,0.5]];portConstraint=eastwest;fontSize=16;" parent="Qi0XVNb7pihfamDj6da_-3" vertex="1">
          <mxGeometry y="130" width="230" height="70" as="geometry" />
        </mxCell>
        <mxCell id="Qi0XVNb7pihfamDj6da_-17" value="8" style="shape=partialRectangle;html=1;whiteSpace=wrap;connectable=0;strokeColor=inherit;overflow=hidden;fillColor=none;top=0;left=0;bottom=0;right=0;pointerEvents=1;fontSize=16;" parent="Qi0XVNb7pihfamDj6da_-16" vertex="1">
          <mxGeometry width="230" height="70" as="geometry">
            <mxRectangle width="230" height="70" as="alternateBounds" />
          </mxGeometry>
        </mxCell>
        <mxCell id="Qi0XVNb7pihfamDj6da_-18" style="shape=tableRow;horizontal=0;startSize=0;swimlaneHead=0;swimlaneBody=0;strokeColor=inherit;top=0;left=0;bottom=0;right=0;collapsible=0;dropTarget=0;fillColor=none;points=[[0,0.5],[1,0.5]];portConstraint=eastwest;fontSize=16;" parent="Qi0XVNb7pihfamDj6da_-3" vertex="1">
          <mxGeometry y="200" width="230" height="60" as="geometry" />
        </mxCell>
        <mxCell id="Qi0XVNb7pihfamDj6da_-19" value="7" style="shape=partialRectangle;html=1;whiteSpace=wrap;connectable=0;strokeColor=inherit;overflow=hidden;fillColor=none;top=0;left=0;bottom=0;right=0;pointerEvents=1;fontSize=16;" parent="Qi0XVNb7pihfamDj6da_-18" vertex="1">
          <mxGeometry width="230" height="60" as="geometry">
            <mxRectangle width="230" height="60" as="alternateBounds" />
          </mxGeometry>
        </mxCell>
        <mxCell id="Qi0XVNb7pihfamDj6da_-20" style="shape=tableRow;horizontal=0;startSize=0;swimlaneHead=0;swimlaneBody=0;strokeColor=inherit;top=0;left=0;bottom=0;right=0;collapsible=0;dropTarget=0;fillColor=none;points=[[0,0.5],[1,0.5]];portConstraint=eastwest;fontSize=16;" parent="Qi0XVNb7pihfamDj6da_-3" vertex="1">
          <mxGeometry y="260" width="230" height="70" as="geometry" />
        </mxCell>
        <mxCell id="Qi0XVNb7pihfamDj6da_-21" value="direccion de retorno a main" style="shape=partialRectangle;html=1;whiteSpace=wrap;connectable=0;strokeColor=inherit;overflow=hidden;fillColor=none;top=0;left=0;bottom=0;right=0;pointerEvents=1;fontSize=16;" parent="Qi0XVNb7pihfamDj6da_-20" vertex="1">
          <mxGeometry width="230" height="70" as="geometry">
            <mxRectangle width="230" height="70" as="alternateBounds" />
          </mxGeometry>
        </mxCell>
        <mxCell id="Qi0XVNb7pihfamDj6da_-22" style="shape=tableRow;horizontal=0;startSize=0;swimlaneHead=0;swimlaneBody=0;strokeColor=inherit;top=0;left=0;bottom=0;right=0;collapsible=0;dropTarget=0;fillColor=none;points=[[0,0.5],[1,0.5]];portConstraint=eastwest;fontSize=16;" parent="Qi0XVNb7pihfamDj6da_-3" vertex="1">
          <mxGeometry y="330" width="230" height="80" as="geometry" />
        </mxCell>
        <mxCell id="Qi0XVNb7pihfamDj6da_-23" value="rbp de f. guarda rsp de main" style="shape=partialRectangle;html=1;whiteSpace=wrap;connectable=0;strokeColor=inherit;overflow=hidden;fillColor=none;top=0;left=0;bottom=0;right=0;pointerEvents=1;fontSize=16;" parent="Qi0XVNb7pihfamDj6da_-22" vertex="1">
          <mxGeometry width="230" height="80" as="geometry">
            <mxRectangle width="230" height="80" as="alternateBounds" />
          </mxGeometry>
        </mxCell>
        <mxCell id="Qi0XVNb7pihfamDj6da_-24" style="shape=tableRow;horizontal=0;startSize=0;swimlaneHead=0;swimlaneBody=0;strokeColor=inherit;top=0;left=0;bottom=0;right=0;collapsible=0;dropTarget=0;fillColor=none;points=[[0,0.5],[1,0.5]];portConstraint=eastwest;fontSize=16;" parent="Qi0XVNb7pihfamDj6da_-3" vertex="1">
          <mxGeometry y="410" width="230" height="70" as="geometry" />
        </mxCell>
        <mxCell id="Qi0XVNb7pihfamDj6da_-25" value="..." style="shape=partialRectangle;html=1;whiteSpace=wrap;connectable=0;strokeColor=inherit;overflow=hidden;fillColor=none;top=0;left=0;bottom=0;right=0;pointerEvents=1;fontSize=16;" parent="Qi0XVNb7pihfamDj6da_-24" vertex="1">
          <mxGeometry width="230" height="70" as="geometry">
            <mxRectangle width="230" height="70" as="alternateBounds" />
          </mxGeometry>
        </mxCell>
        <mxCell id="_Xig-yr3xcJaS5qAGyrN-6" value="Registros" style="rounded=0;whiteSpace=wrap;html=1;" parent="1" vertex="1">
          <mxGeometry x="40" y="130" width="250" height="60" as="geometry" />
        </mxCell>
        <mxCell id="_Xig-yr3xcJaS5qAGyrN-7" value="" style="shape=table;startSize=0;container=1;collapsible=0;childLayout=tableLayout;fontSize=16;fillColor=#ffe6cc;strokeColor=#d79b00;" parent="1" vertex="1">
          <mxGeometry x="40" y="190" width="250" height="240" as="geometry" />
        </mxCell>
        <mxCell id="_Xig-yr3xcJaS5qAGyrN-27" style="shape=tableRow;horizontal=0;startSize=0;swimlaneHead=0;swimlaneBody=0;strokeColor=inherit;top=0;left=0;bottom=0;right=0;collapsible=0;dropTarget=0;fillColor=none;points=[[0,0.5],[1,0.5]];portConstraint=eastwest;fontSize=16;" parent="_Xig-yr3xcJaS5qAGyrN-7" vertex="1">
          <mxGeometry width="250" height="40" as="geometry" />
        </mxCell>
        <mxCell id="_Xig-yr3xcJaS5qAGyrN-28" value="rdi = &#39;1&#39;" style="shape=partialRectangle;html=1;whiteSpace=wrap;connectable=0;strokeColor=inherit;overflow=hidden;fillColor=none;top=0;left=0;bottom=0;right=0;pointerEvents=1;fontSize=16;" parent="_Xig-yr3xcJaS5qAGyrN-27" vertex="1">
          <mxGeometry width="250" height="40" as="geometry">
            <mxRectangle width="250" height="40" as="alternateBounds" />
          </mxGeometry>
        </mxCell>
        <mxCell id="_Xig-yr3xcJaS5qAGyrN-25" style="shape=tableRow;horizontal=0;startSize=0;swimlaneHead=0;swimlaneBody=0;strokeColor=inherit;top=0;left=0;bottom=0;right=0;collapsible=0;dropTarget=0;fillColor=none;points=[[0,0.5],[1,0.5]];portConstraint=eastwest;fontSize=16;" parent="_Xig-yr3xcJaS5qAGyrN-7" vertex="1">
          <mxGeometry y="40" width="250" height="40" as="geometry" />
        </mxCell>
        <mxCell id="_Xig-yr3xcJaS5qAGyrN-26" value="rsi = 2" style="shape=partialRectangle;html=1;whiteSpace=wrap;connectable=0;strokeColor=inherit;overflow=hidden;fillColor=none;top=0;left=0;bottom=0;right=0;pointerEvents=1;fontSize=16;" parent="_Xig-yr3xcJaS5qAGyrN-25" vertex="1">
          <mxGeometry width="250" height="40" as="geometry">
            <mxRectangle width="250" height="40" as="alternateBounds" />
          </mxGeometry>
        </mxCell>
        <mxCell id="_Xig-yr3xcJaS5qAGyrN-23" style="shape=tableRow;horizontal=0;startSize=0;swimlaneHead=0;swimlaneBody=0;strokeColor=inherit;top=0;left=0;bottom=0;right=0;collapsible=0;dropTarget=0;fillColor=none;points=[[0,0.5],[1,0.5]];portConstraint=eastwest;fontSize=16;" parent="_Xig-yr3xcJaS5qAGyrN-7" vertex="1">
          <mxGeometry y="80" width="250" height="40" as="geometry" />
        </mxCell>
        <mxCell id="_Xig-yr3xcJaS5qAGyrN-24" value="rdx = &#39;3&#39;" style="shape=partialRectangle;html=1;whiteSpace=wrap;connectable=0;strokeColor=inherit;overflow=hidden;fillColor=none;top=0;left=0;bottom=0;right=0;pointerEvents=1;fontSize=16;" parent="_Xig-yr3xcJaS5qAGyrN-23" vertex="1">
          <mxGeometry width="250" height="40" as="geometry">
            <mxRectangle width="250" height="40" as="alternateBounds" />
          </mxGeometry>
        </mxCell>
        <mxCell id="_Xig-yr3xcJaS5qAGyrN-21" style="shape=tableRow;horizontal=0;startSize=0;swimlaneHead=0;swimlaneBody=0;strokeColor=inherit;top=0;left=0;bottom=0;right=0;collapsible=0;dropTarget=0;fillColor=none;points=[[0,0.5],[1,0.5]];portConstraint=eastwest;fontSize=16;" parent="_Xig-yr3xcJaS5qAGyrN-7" vertex="1">
          <mxGeometry y="120" width="250" height="40" as="geometry" />
        </mxCell>
        <mxCell id="_Xig-yr3xcJaS5qAGyrN-22" value="rcx =4" style="shape=partialRectangle;html=1;whiteSpace=wrap;connectable=0;strokeColor=inherit;overflow=hidden;fillColor=none;top=0;left=0;bottom=0;right=0;pointerEvents=1;fontSize=16;" parent="_Xig-yr3xcJaS5qAGyrN-21" vertex="1">
          <mxGeometry width="250" height="40" as="geometry">
            <mxRectangle width="250" height="40" as="alternateBounds" />
          </mxGeometry>
        </mxCell>
        <mxCell id="_Xig-yr3xcJaS5qAGyrN-12" value="" style="shape=tableRow;horizontal=0;startSize=0;swimlaneHead=0;swimlaneBody=0;strokeColor=inherit;top=0;left=0;bottom=0;right=0;collapsible=0;dropTarget=0;fillColor=none;points=[[0,0.5],[1,0.5]];portConstraint=eastwest;fontSize=16;" parent="_Xig-yr3xcJaS5qAGyrN-7" vertex="1">
          <mxGeometry y="160" width="250" height="40" as="geometry" />
        </mxCell>
        <mxCell id="_Xig-yr3xcJaS5qAGyrN-13" value="r8 =&#39;5&#39;" style="shape=partialRectangle;html=1;whiteSpace=wrap;connectable=0;strokeColor=inherit;overflow=hidden;fillColor=none;top=0;left=0;bottom=0;right=0;pointerEvents=1;fontSize=16;" parent="_Xig-yr3xcJaS5qAGyrN-12" vertex="1">
          <mxGeometry width="250" height="40" as="geometry">
            <mxRectangle width="250" height="40" as="alternateBounds" />
          </mxGeometry>
        </mxCell>
        <mxCell id="_Xig-yr3xcJaS5qAGyrN-16" value="" style="shape=tableRow;horizontal=0;startSize=0;swimlaneHead=0;swimlaneBody=0;strokeColor=inherit;top=0;left=0;bottom=0;right=0;collapsible=0;dropTarget=0;fillColor=none;points=[[0,0.5],[1,0.5]];portConstraint=eastwest;fontSize=16;" parent="_Xig-yr3xcJaS5qAGyrN-7" vertex="1">
          <mxGeometry y="200" width="250" height="40" as="geometry" />
        </mxCell>
        <mxCell id="_Xig-yr3xcJaS5qAGyrN-17" value="r9 = 6" style="shape=partialRectangle;html=1;whiteSpace=wrap;connectable=0;strokeColor=inherit;overflow=hidden;fillColor=none;top=0;left=0;bottom=0;right=0;pointerEvents=1;fontSize=16;" parent="_Xig-yr3xcJaS5qAGyrN-16" vertex="1">
          <mxGeometry width="250" height="40" as="geometry">
            <mxRectangle width="250" height="40" as="alternateBounds" />
          </mxGeometry>
        </mxCell>
      </root>
    </mxGraphModel>
  </diagram>
</mxfile>
